<?xml version="1.0" encoding="UTF-8" standalone="no"?>
<!DOCTYPE svg PUBLIC "-//W3C//DTD SVG 1.1//EN" "http://www.w3.org/Graphics/SVG/1.1/DTD/svg11.dtd">
<!-- Created with Vectornator (http://vectornator.io/) -->
<svg height="1024.0px" stroke-miterlimit="10" style="fill-rule:nonzero;clip-rule:evenodd;stroke-linecap:round;stroke-linejoin:round;" version="1.1" viewBox="0 0 1024 1024" width="1024.0px" xml:space="preserve" xmlns="http://www.w3.org/2000/svg" xmlns:xlink="http://www.w3.org/1999/xlink">
<path d="M873.424 247.683C889.76 267.296 904.181 288.012 916.688 309.832C929.195 331.651 939.787 354.574 948.465 378.6C957.143 402.135 963.652 426.038 967.991 450.309C972.33 474.58 974.5 499.219 974.5 524.225C974.5 554.625 971.437 584.167 965.311 612.851C959.185 641.535 949.997 669.36 937.745 696.328C926.004 723.296 911.966 748.548 895.63 772.083C879.295 795.619 860.662 817.438 839.732 837.542C818.802 857.645 796.086 875.664 771.582 891.599C747.079 907.535 720.789 921.386 692.712 933.154C664.635 944.924 635.665 953.749 605.802 959.633C575.938 965.516 545.182 968.457 513.532 968.457C486.986 968.457 460.951 966.374 435.427 962.207C409.903 958.04 384.889 951.789 360.386 943.452C335.883 935.116 312.4 924.941 289.939 912.928C267.477 900.915 246.037 887.064 225.617 871.374L154.733 938.866L83.8491 1006.36C77.3077 1012.59 68.7204 1013.32 61.7685 1010.21C54.8166 1007.1 49.5 1000.14 49.5 990.979L49.5 990.15L49.5 989.321C49.5 986.418 50.0859 983.581 51.188 980.973C52.2902 978.366 53.9085 975.988 55.9734 974.004L498.03 549.41L940.086 124.815C946.616 118.543 955.22 117.782 962.191 120.885C969.162 123.987 974.5 130.953 974.5 140.132L974.5 140.816L974.5 141.501C974.5 144.403 973.914 147.24 972.812 149.848C971.71 152.456 970.092 154.834 968.027 156.817L920.725 202.25L873.424 247.683ZM931.619 524.225C931.619 501.67 929.705 479.483 925.876 457.664C922.047 435.845 916.305 414.393 908.647 393.309C901.5 372.225 892.439 352 881.464 332.632C870.489 313.264 857.599 294.754 842.795 277.103L549.521 559.528L256.247 841.954C274.114 855.683 293.002 867.819 312.911 878.361C332.82 888.902 353.75 897.851 375.7 905.205C398.162 912.56 420.878 918.076 443.85 921.754C466.822 925.431 490.049 927.27 513.532 927.27C542.119 927.27 569.94 924.696 596.996 919.548C624.052 914.399 650.342 906.676 675.866 896.379C701.39 885.592 725.255 872.967 747.461 858.502C769.668 844.038 790.215 827.734 809.103 809.592C827.991 790.96 844.837 770.98 859.641 749.651C874.445 728.322 887.207 705.645 897.928 681.619C909.158 657.103 917.581 631.729 923.196 605.496C928.811 579.264 931.619 552.173 931.619 524.225ZM940.026 17.7623C946.546 11.4489 955.164 10.6639 962.153 13.7571C969.141 16.8502 974.5 23.8215 974.5 33.0207L974.5 33.5704L974.5 34.1201C974.5 37.0224 973.914 39.8598 972.812 42.4675C971.71 45.0752 970.091 47.4532 968.027 49.4365L526.62 473.409L85.2131 897.381C78.5872 903.745 69.8643 904.431 62.8584 901.198C55.8525 897.965 50.5637 890.814 50.8061 881.504L50.8061 881.504L50.8061 881.504C50.8782 878.731 51.4842 876.029 52.5615 873.543C53.6388 871.056 55.1875 868.784 57.1453 866.871L98.5006 826.464L139.856 786.058C110.248 747.322 88.0417 706.135 73.2376 662.496C58.4335 618.857 51.0315 572.767 51.0315 524.225C51.0315 493.825 53.9668 464.283 59.8373 435.599C65.7079 406.915 74.5138 379.09 86.255 352.122C98.5066 325.155 112.928 299.903 129.519 276.367C146.109 252.832 164.87 231.012 185.8 210.909C206.73 190.806 229.446 172.786 253.95 156.851C278.453 140.916 304.743 127.064 332.819 115.296C360.896 103.528 389.994 94.7025 420.113 88.8188C450.231 82.935 481.371 79.9931 513.532 79.9931C538.035 79.9931 562.155 81.8319 585.893 85.5093C609.63 89.1868 632.985 94.703 655.957 102.058C679.439 109.412 702.028 118.483 723.724 129.27C745.42 140.057 766.222 152.561 786.131 166.78L863.078 92.2712L940.026 17.7623ZM513.532 122.651C484.434 122.651 456.23 125.348 428.919 130.742C401.607 136.135 375.19 144.226 349.665 155.013C324.651 165.309 301.041 177.567 278.835 191.787C256.629 206.006 235.827 222.187 216.429 240.329C197.541 258.47 180.567 278.206 165.508 299.535C150.449 320.864 137.303 343.786 126.073 368.302C115.353 392.328 107.312 417.335 101.952 443.322C96.5923 469.309 93.9122 496.277 93.9122 524.225C93.9122 545.309 95.4437 566.025 98.5066 586.373C101.57 606.722 106.164 626.703 112.29 646.316C118.926 665.929 127.222 684.929 137.176 703.316C147.13 721.703 158.744 739.477 172.016 756.638L463.759 476.419L755.502 196.2C719.257 171.684 680.971 153.297 640.643 141.038C600.314 128.78 557.944 122.651 513.532 122.651Z" fill="#ffffff" opacity="1" stroke-linecap="round" stroke-linejoin="round"/>
</svg>
